<?xml version="1.0" encoding="UTF-8"?>
<svg version="1.1" xmlns="http://www.w3.org/2000/svg" width="32" height="32">
<path d="M0 0 C10.56 0 21.12 0 32 0 C32 10.56 32 21.12 32 32 C21.44 32 10.88 32 0 32 C0 21.44 0 10.88 0 0 Z " fill="#FDFDFE" transform="translate(0,0)"/>
<path d="M0 0 C1.34983497 0.63258816 2.68831448 1.29168982 4 2 C4.0809723 4.43816585 4.14046972 6.87364384 4.1875 9.3125 C4.21263672 10.00279297 4.23777344 10.69308594 4.26367188 11.40429688 C4.33768077 16.51091074 4.33768077 16.51091074 2.67578125 18.91796875 C-1.1015522 21.35694629 -4.62903659 21.37680719 -9 21 C-12 19.5 -12 19.5 -14 17 C-14.34258356 12.71331343 -13.27840429 8.64544686 -11 5 C-11.99 4.67 -12.98 4.34 -14 4 C-14 3.34 -14 2.68 -14 2 C-8.73834821 -1.28853237 -5.8673179 -1.23024408 0 0 Z " fill="#CDC05A" transform="translate(21,5)"/>
<path d="M0 0 C2.5 1.0625 2.5 1.0625 4 2 C4 2.66 4 3.32 4 4 C3.01 4.66 2.02 5.32 1 6 C1.66 6 2.32 6 3 6 C2.34 7.32 1.68 8.64 1 10 C0.67 9.34 0.34 8.68 0 8 C-3.63 8 -7.26 8 -11 8 C-11 7.01 -11 6.02 -11 5 C-11.99 4.67 -12.98 4.34 -14 4 C-14 3.34 -14 2.68 -14 2 C-8.73834821 -1.28853237 -5.8673179 -1.23024408 0 0 Z " fill="#28659D" transform="translate(21,5)"/>
<path d="M0 0 C0.99 0.33 1.98 0.66 3 1 C3.08107583 2.93681161 3.13922475 4.8745934 3.1875 6.8125 C3.23970703 8.43091797 3.23970703 8.43091797 3.29296875 10.08203125 C3 13 3 13 1.67578125 14.82421875 C-2.01782268 17.41576836 -5.63745787 17.31161015 -10 17 C-11.9375 15.5 -11.9375 15.5 -13 14 C-11.02 14 -9.04 14 -7 14 C-7.33 13.34 -7.66 12.68 -8 12 C-6.68 11.67 -5.36 11.34 -4 11 C-4 9.68 -4 8.36 -4 7 C-2.68 6.67 -1.36 6.34 0 6 C0 5.01 0 4.02 0 3 C0 2.01 0 1.02 0 0 Z " fill="#B0A45D" transform="translate(22,9)"/>
<path d="M0 0 C2.5 1.0625 2.5 1.0625 4 2 C4 2.66 4 3.32 4 4 C3.34 3.835 2.68 3.67 2 3.5 C-1.78828501 2.86861917 -5.15611987 2.81095672 -9 3 C-9.66 3.66 -10.32 4.32 -11 5 C-11.99 4.67 -12.98 4.34 -14 4 C-14 3.34 -14 2.68 -14 2 C-8.73834821 -1.28853237 -5.8673179 -1.23024408 0 0 Z " fill="#136ABE" transform="translate(21,5)"/>
<path d="M0 0 C0.66 0 1.32 0 2 0 C2.66 1.98 3.32 3.96 4 6 C2.68 6 1.36 6 0 6 C2.97 6.495 2.97 6.495 6 7 C6 7.33 6 7.66 6 8 C4.37509046 8.02698189 2.75005367 8.04638757 1.125 8.0625 C-0.23238281 8.07990234 -0.23238281 8.07990234 -1.6171875 8.09765625 C-4 8 -4 8 -6 7 C-6 5.35 -6 3.7 -6 2 C-5.01 2.495 -5.01 2.495 -4 3 C-3.01 3 -2.02 3 -1 3 C-0.67 2.01 -0.34 1.02 0 0 Z " fill="#FBD51C" transform="translate(15,16)"/>
<path d="M0 0 C0.99 0.33 1.98 0.66 3 1 C3.02694851 2.95825873 3.04637218 4.91662226 3.0625 6.875 C3.07410156 7.96554688 3.08570313 9.05609375 3.09765625 10.1796875 C3 13 3 13 2 15 C1.34 14.67 0.68 14.34 0 14 C0.09539063 13.22914062 0.19078125 12.45828125 0.2890625 11.6640625 C0.39992188 10.66117188 0.51078125 9.65828125 0.625 8.625 C0.74101562 7.62726562 0.85703125 6.62953125 0.9765625 5.6015625 C0.98816406 4.31378906 0.98816406 4.31378906 1 3 C0.34 2.34 -0.32 1.68 -1 1 C-0.67 0.67 -0.34 0.34 0 0 Z " fill="#94ABC3" transform="translate(22,9)"/>
<path d="M0 0 C0 0.66 0 1.32 0 2 C-0.99 2 -1.98 2 -3 2 C-3.66 3.32 -4.32 4.64 -5 6 C-5.99 5.67 -6.98 5.34 -8 5 C-8 4.34 -8 3.68 -8 3 C-2.25 0 -2.25 0 0 0 Z " fill="#296DBA" transform="translate(15,4)"/>
<path d="M0 0 C0.66 0 1.32 0 2 0 C2.66 1.98 3.32 3.96 4 6 C2.02 6 0.04 6 -2 6 C-1.34 4.02 -0.68 2.04 0 0 Z " fill="#FCB21E" transform="translate(15,16)"/>
<path d="M0 0 C2.64 0 5.28 0 8 0 C8 0.66 8 1.32 8 2 C4.71303767 2.79953138 3.28976808 3.09658936 0 2 C0 1.34 0 0.68 0 0 Z " fill="#0368C7" transform="translate(12,9)"/>
</svg>
