<?xml version="1.0" encoding="UTF-8"?>
<svg version="1.1" xmlns="http://www.w3.org/2000/svg" width="1024" height="1024">
<path d="M0 0 C337.92 0 675.84 0 1024 0 C1024 337.92 1024 675.84 1024 1024 C686.08 1024 348.16 1024 0 1024 C0 686.08 0 348.16 0 0 Z " fill="#FEFEFE" transform="translate(0,0)"/>
<path d="M0 0 C8.12651515 3.70808859 16.28387094 7.34460927 24.45004272 10.96438599 C28.27085357 12.65810974 32.09044111 14.35458826 35.91015625 16.05078125 C36.65290298 16.38056473 37.39564972 16.71034821 38.16090393 17.05012512 C57.13284491 25.47475437 76.04447687 34.01777106 94.89358521 42.71328735 C105.30314963 47.51298527 115.74717039 52.20776142 126.27587891 56.74169922 C135.75896161 60.82750485 145.0863893 65.20133646 154.375 69.7109375 C167.03553183 75.85120451 179.74014775 81.85670908 192.5546875 87.66796875 C193.60709122 88.14577789 193.60709122 88.14577789 194.68075562 88.63323975 C201.41911555 91.69085169 208.16366263 94.73074422 214.9453125 97.69140625 C215.86707275 98.09649414 216.78883301 98.50158203 217.73852539 98.91894531 C219.37447121 99.63551791 221.01396747 100.34407609 222.65795898 101.04199219 C229.48796042 104.0363464 234.78384522 107.69906812 237.92578125 114.6796875 C239.78822874 120.70896666 239.28927256 127.27585457 236.76953125 133.046875 C231.95219313 140.86892571 223.6079159 143.92260455 215.6171875 147.91796875 C215.2871875 167.71796875 214.9571875 187.51796875 214.6171875 207.91796875 C215.9371875 208.57796875 217.2571875 209.23796875 218.6171875 209.91796875 C225.02671014 216.7159473 226.01299763 222.67273925 225.87890625 231.71875 C225.64578043 234.56845213 225.1299649 236.78770745 224.2421875 239.48046875 C222.8666244 244.7343556 225.43503906 248.14667753 227.9453125 252.68359375 C232.82070097 262.11542004 234.8176492 272.36576217 233.6171875 282.91796875 C231.99304117 287.97086844 229.04603685 291.07826106 224.6171875 293.91796875 C217.52083673 297.32224362 211.0329256 297.40245237 203.2421875 297.35546875 C202.07429687 297.37544922 200.90640625 297.39542969 199.703125 297.41601562 C191.72154907 297.41154165 183.85079691 296.73951822 177.67822266 291.16772461 C173.99731144 287.18918576 171.70931747 283.3501999 171.5 277.82421875 C172.28931489 266.72288679 174.62524295 257.35156629 180.0546875 247.60546875 C182.1464297 243.87678825 182.1464297 243.87678825 182.33203125 239.77734375 C181.76931139 238.48963133 181.15997638 237.22136737 180.5078125 235.9765625 C178.20806238 230.66091201 179.00311394 223.98960001 180.8046875 218.60546875 C182.65087039 214.33287407 185.36286167 210.04513166 189.6171875 207.91796875 C190.07867134 205.88580445 190.07867134 205.88580445 190.22241211 203.44970703 C190.332491 202.08824554 190.332491 202.08824554 190.4447937 200.69927979 C190.6986976 196.60292764 190.84803456 192.51323384 190.93359375 188.41015625 C190.95437485 187.55865997 190.97515594 186.7071637 190.99656677 185.8298645 C191.06114501 183.15096892 191.12051333 180.47198858 191.1796875 177.79296875 C191.22296032 175.95962719 191.26657715 174.12629372 191.31054688 172.29296875 C191.41672999 167.83471882 191.51824591 163.37638503 191.6171875 158.91796875 C190.97394531 159.21453369 190.33070313 159.51109863 189.66796875 159.81665039 C167.64967188 169.96006515 167.64967188 169.96006515 158.15966797 174.05712891 C153.50726124 176.07281422 148.8818931 178.14602525 144.26171875 180.234375 C142.93123671 180.83480479 141.60075166 181.43522791 140.27026367 182.03564453 C138.26099582 182.94259284 136.25236664 183.85084148 134.24551392 184.76312256 C132.36304907 185.61878039 130.47859976 186.46992394 128.59375 187.3203125 C127.49111816 187.82038818 126.38848633 188.32046387 125.25244141 188.83569336 C122.6171875 189.91796875 122.6171875 189.91796875 120.6171875 189.91796875 C122.16453081 196.47335408 123.74930298 203.01888355 125.35961914 209.55908203 C125.90233015 211.78195135 126.43664447 214.00688907 126.9621582 216.23388672 C127.72194328 219.44697973 128.51227908 222.65125949 129.30859375 225.85546875 C129.5349501 226.84224609 129.76130646 227.82902344 129.99452209 228.84570312 C131.75912479 235.76785915 134.57080948 239.92784264 139.6171875 244.91796875 C140.53933625 245.94214503 141.45276054 246.97427334 142.35546875 248.015625 C143.20496094 248.99402344 144.05445313 249.97242188 144.9296875 250.98046875 C181.93432552 294.62042118 189.45430985 350.64067358 193.68359375 405.67565918 C193.99336462 409.66993209 194.31787193 413.66300909 194.640625 417.65625 C195.05801954 422.84509664 195.47375942 428.03406142 195.87624741 433.22408867 C196.02899983 435.18561557 196.18614456 437.14679886 196.34338379 439.10797119 C196.52924285 441.69421285 196.67630371 444.28347747 196.78845215 446.8739624 C196.84762817 448.12066711 196.9068042 449.36737183 196.96777344 450.65185547 C197.00739197 451.75761932 197.0470105 452.86338318 197.08782959 454.00265503 C197.87714638 458.34963089 200.16870509 460.25846411 203.44140625 463.03125 C218.687387 476.25173241 227.24432354 502.10454767 228.83862305 521.62988281 C230.29890461 555.94182904 218.84194597 585.36472828 196.2421875 610.98046875 C194.70931518 612.63449593 193.16741023 614.28019191 191.6171875 615.91796875 C190.42222656 617.20960938 190.42222656 617.20960938 189.203125 618.52734375 C176.26208343 632.05483736 160.66126411 642.42827385 144.6171875 651.91796875 C143.94848633 652.31435547 143.27978516 652.71074219 142.59082031 653.11914062 C114.09281752 669.72019828 81.55821029 679.56676619 49.6171875 686.91796875 C48.95460938 687.07116577 48.29203125 687.22436279 47.609375 687.38220215 C18.09861203 694.17718149 -10.48680031 696.40560727 -40.68315887 696.41651917 C-43.03555758 696.41794765 -45.38790691 696.4242142 -47.74029541 696.43103027 C-67.14657539 696.46860327 -86.13055463 695.62475633 -105.3828125 692.91796875 C-106.16437714 692.81119812 -106.94594177 692.70442749 -107.75119019 692.59442139 C-112.01722939 692.00571152 -116.26381199 691.33533068 -120.5078125 690.60546875 C-121.75240234 690.39237061 -122.99699219 690.17927246 -124.27929688 689.9597168 C-177.34144756 680.61431124 -238.70143701 660.49791159 -276.3828125 619.91796875 C-277.2078125 619.09296875 -278.0328125 618.26796875 -278.8828125 617.41796875 C-279.7078125 616.59296875 -280.5328125 615.76796875 -281.3828125 614.91796875 C-281.87007813 614.47710938 -282.35734375 614.03625 -282.859375 613.58203125 C-303.41212102 594.39297454 -316.28038613 564.80640822 -317.46972656 536.87695312 C-318.40505813 509.52738443 -310.96628782 483.55057253 -292.3828125 462.91796875 C-291.37839111 462.11415771 -290.37396973 461.31034668 -289.33911133 460.48217773 C-285.09018998 456.21508825 -285.28456901 451.36658511 -285.02734375 445.609375 C-284.95525192 444.50286087 -284.8831601 443.39634674 -284.80888367 442.25630188 C-284.65791424 439.89091437 -284.51951474 437.52469683 -284.39257812 435.15789795 C-284.19398392 431.45570132 -283.96319189 427.75682214 -283.72265625 424.05712891 C-283.40718136 419.19402879 -283.10141447 414.33049728 -282.80322266 409.46630859 C-279.5819893 358.05100021 -273.06782045 304.45252798 -241.3828125 261.91796875 C-240.38701172 260.57992187 -240.38701172 260.57992187 -239.37109375 259.21484375 C-236.59123721 255.62865965 -233.69966134 252.21875107 -230.546875 248.95703125 C-230.05437256 248.44164795 -229.56187012 247.92626465 -229.05444336 247.39526367 C-227.65118276 245.93937215 -226.22657186 244.50414707 -224.80078125 243.0703125 C-219.9845366 236.79129888 -218.74674175 228.69191679 -217.12109375 221.0703125 C-216.92557419 220.17300919 -216.73005463 219.27570587 -216.52861023 218.35121155 C-215.9128632 215.52028174 -215.3039743 212.6879294 -214.6953125 209.85546875 C-214.2758456 207.92112524 -213.85592788 205.98687943 -213.43554688 204.05273438 C-212.41275821 199.34225827 -211.39611205 194.63049482 -210.3828125 189.91796875 C-225.54746085 182.84738026 -240.73069331 175.81792833 -255.9453125 168.85546875 C-257.05184174 168.34898804 -257.05184174 168.34898804 -258.1807251 167.83227539 C-266.97348695 163.81055804 -275.78475398 159.83614762 -284.6315918 155.93481445 C-289.89062306 153.615016 -295.13963151 151.27335018 -300.3828125 148.91796875 C-301.23504395 148.53705078 -302.08727539 148.15613281 -302.96533203 147.76367188 C-312.349285 143.52316034 -319.95444459 139.62564509 -324.8203125 130.10546875 C-326.11375956 122.7759354 -326.25767409 116.36266389 -322.74609375 109.671875 C-319.48391247 105.47497129 -315.08645128 103.08985022 -310.37890625 100.80859375 C-309.50525421 100.38336174 -309.50525421 100.38336174 -308.61395264 99.94953918 C-306.68623527 99.01490127 -304.75364918 98.09092109 -302.8203125 97.16796875 C-302.14553864 96.84327606 -301.47076477 96.51858337 -300.77554321 96.18405151 C-289.05254138 90.54539243 -277.20124826 85.21820967 -265.29522705 79.97940063 C-254.18648591 75.09089579 -243.16148304 70.05587023 -232.1953125 64.85546875 C-216.9959881 57.65139159 -201.71397301 50.64590628 -186.38378906 43.72509766 C-183.11883032 42.25104414 -179.85558606 40.77324734 -176.59307861 39.29377747 C-165.2202295 34.13672714 -153.83967599 28.99830113 -142.421875 23.94140625 C-141.66400192 23.60572632 -140.90612885 23.27004639 -140.12528992 22.92419434 C-137.04570123 21.56038959 -133.9660844 20.19664862 -130.88626099 18.83337402 C-120.87737805 14.39998581 -110.92008033 9.87664504 -101.0078125 5.23046875 C-91.76261414 0.90556887 -82.47763865 -3.31442137 -73.12420654 -7.39932251 C-71.81605078 -7.97096657 -70.5087691 -8.54461586 -69.20245361 -9.12045288 C-42.22535664 -20.99386915 -25.18203591 -11.49124962 0 0 Z " fill="#FCD321" transform="translate(556.3828125,129.08203125)"/>
<path d="M0 0 C8.12651515 3.70808859 16.28387094 7.34460927 24.45004272 10.96438599 C28.27085357 12.65810974 32.09044111 14.35458826 35.91015625 16.05078125 C36.65290298 16.38056473 37.39564972 16.71034821 38.16090393 17.05012512 C57.13284491 25.47475437 76.04447687 34.01777106 94.89358521 42.71328735 C105.30314963 47.51298527 115.74717039 52.20776142 126.27587891 56.74169922 C135.75896161 60.82750485 145.0863893 65.20133646 154.375 69.7109375 C167.03553183 75.85120451 179.74014775 81.85670908 192.5546875 87.66796875 C193.60709122 88.14577789 193.60709122 88.14577789 194.68075562 88.63323975 C201.41911555 91.69085169 208.16366263 94.73074422 214.9453125 97.69140625 C215.86707275 98.09649414 216.78883301 98.50158203 217.73852539 98.91894531 C219.37447121 99.63551791 221.01396747 100.34407609 222.65795898 101.04199219 C229.48796042 104.0363464 234.78384522 107.69906812 237.92578125 114.6796875 C239.78822874 120.70896666 239.28927256 127.27585457 236.76953125 133.046875 C231.95219313 140.86892571 223.6079159 143.92260455 215.6171875 147.91796875 C215.2871875 167.71796875 214.9571875 187.51796875 214.6171875 207.91796875 C215.9371875 208.57796875 217.2571875 209.23796875 218.6171875 209.91796875 C225.02671014 216.7159473 226.01299763 222.67273925 225.87890625 231.71875 C225.64578043 234.56845213 225.1299649 236.78770745 224.2421875 239.48046875 C222.8666244 244.7343556 225.43503906 248.14667753 227.9453125 252.68359375 C232.82070097 262.11542004 234.8176492 272.36576217 233.6171875 282.91796875 C231.99304117 287.97086844 229.04603685 291.07826106 224.6171875 293.91796875 C217.52083673 297.32224362 211.0329256 297.40245237 203.2421875 297.35546875 C202.07429687 297.37544922 200.90640625 297.39542969 199.703125 297.41601562 C191.72154907 297.41154165 183.85079691 296.73951822 177.67822266 291.16772461 C173.99731144 287.18918576 171.70931747 283.3501999 171.5 277.82421875 C172.28931489 266.72288679 174.62524295 257.35156629 180.0546875 247.60546875 C182.1464297 243.87678825 182.1464297 243.87678825 182.33203125 239.77734375 C181.76931139 238.48963133 181.15997638 237.22136737 180.5078125 235.9765625 C178.20806238 230.66091201 179.00311394 223.98960001 180.8046875 218.60546875 C182.65087039 214.33287407 185.36286167 210.04513166 189.6171875 207.91796875 C190.07867134 205.88580445 190.07867134 205.88580445 190.22241211 203.44970703 C190.332491 202.08824554 190.332491 202.08824554 190.4447937 200.69927979 C190.6986976 196.60292764 190.84803456 192.51323384 190.93359375 188.41015625 C190.95437485 187.55865997 190.97515594 186.7071637 190.99656677 185.8298645 C191.06114501 183.15096892 191.12051333 180.47198858 191.1796875 177.79296875 C191.22296032 175.95962719 191.26657715 174.12629372 191.31054688 172.29296875 C191.41672999 167.83471882 191.51824591 163.37638503 191.6171875 158.91796875 C190.97394531 159.21453369 190.33070313 159.51109863 189.66796875 159.81665039 C167.64967188 169.96006515 167.64967188 169.96006515 158.15966797 174.05712891 C153.50726124 176.07281422 148.8818931 178.14602525 144.26171875 180.234375 C142.93123671 180.83480479 141.60075166 181.43522791 140.27026367 182.03564453 C138.26099582 182.94259284 136.25236664 183.85084148 134.24551392 184.76312256 C132.36304907 185.61878039 130.47859976 186.46992394 128.59375 187.3203125 C127.49111816 187.82038818 126.38848633 188.32046387 125.25244141 188.83569336 C122.6171875 189.91796875 122.6171875 189.91796875 120.6171875 189.91796875 C122.16453081 196.47335408 123.74930298 203.01888355 125.35961914 209.55908203 C125.90233015 211.78195135 126.43664447 214.00688907 126.9621582 216.23388672 C127.72194328 219.44697973 128.51227908 222.65125949 129.30859375 225.85546875 C129.5349501 226.84224609 129.76130646 227.82902344 129.99452209 228.84570312 C131.75912479 235.76785915 134.57080948 239.92784264 139.6171875 244.91796875 C140.53933625 245.94214503 141.45276054 246.97427334 142.35546875 248.015625 C143.20496094 248.99402344 144.05445313 249.97242188 144.9296875 250.98046875 C181.93432552 294.62042118 189.45430985 350.64067358 193.68359375 405.67565918 C193.99336462 409.66993209 194.31787193 413.66300909 194.640625 417.65625 C195.05801954 422.84509664 195.47375942 428.03406142 195.87624741 433.22408867 C196.02899983 435.18561557 196.18614456 437.14679886 196.34338379 439.10797119 C196.52924285 441.69421285 196.67630371 444.28347747 196.78845215 446.8739624 C196.84762817 448.12066711 196.9068042 449.36737183 196.96777344 450.65185547 C197.00739197 451.75761932 197.0470105 452.86338318 197.08782959 454.00265503 C197.87714638 458.34963089 200.16870509 460.25846411 203.44140625 463.03125 C218.687387 476.25173241 227.24432354 502.10454767 228.83862305 521.62988281 C230.29890461 555.94182904 218.84194597 585.36472828 196.2421875 610.98046875 C194.70931518 612.63449593 193.16741023 614.28019191 191.6171875 615.91796875 C190.42222656 617.20960938 190.42222656 617.20960938 189.203125 618.52734375 C176.26208343 632.05483736 160.66126411 642.42827385 144.6171875 651.91796875 C143.94848633 652.31435547 143.27978516 652.71074219 142.59082031 653.11914062 C114.09281752 669.72019828 81.55821029 679.56676619 49.6171875 686.91796875 C48.95460938 687.07116577 48.29203125 687.22436279 47.609375 687.38220215 C18.09861203 694.17718149 -10.48680031 696.40560727 -40.68315887 696.41651917 C-43.03555758 696.41794765 -45.38790691 696.4242142 -47.74029541 696.43103027 C-67.14657539 696.46860327 -86.13055463 695.62475633 -105.3828125 692.91796875 C-106.16437714 692.81119812 -106.94594177 692.70442749 -107.75119019 692.59442139 C-112.01722939 692.00571152 -116.26381199 691.33533068 -120.5078125 690.60546875 C-121.75240234 690.39237061 -122.99699219 690.17927246 -124.27929688 689.9597168 C-177.34144756 680.61431124 -238.70143701 660.49791159 -276.3828125 619.91796875 C-277.2078125 619.09296875 -278.0328125 618.26796875 -278.8828125 617.41796875 C-279.7078125 616.59296875 -280.5328125 615.76796875 -281.3828125 614.91796875 C-281.87007813 614.47710938 -282.35734375 614.03625 -282.859375 613.58203125 C-303.41212102 594.39297454 -316.28038613 564.80640822 -317.46972656 536.87695312 C-318.40505813 509.52738443 -310.96628782 483.55057253 -292.3828125 462.91796875 C-291.37839111 462.11415771 -290.37396973 461.31034668 -289.33911133 460.48217773 C-285.09018998 456.21508825 -285.28456901 451.36658511 -285.02734375 445.609375 C-284.95525192 444.50286087 -284.8831601 443.39634674 -284.80888367 442.25630188 C-284.65791424 439.89091437 -284.51951474 437.52469683 -284.39257812 435.15789795 C-284.19398392 431.45570132 -283.96319189 427.75682214 -283.72265625 424.05712891 C-283.40718136 419.19402879 -283.10141447 414.33049728 -282.80322266 409.46630859 C-279.5819893 358.05100021 -273.06782045 304.45252798 -241.3828125 261.91796875 C-240.38701172 260.57992187 -240.38701172 260.57992187 -239.37109375 259.21484375 C-236.59123721 255.62865965 -233.69966134 252.21875107 -230.546875 248.95703125 C-230.05437256 248.44164795 -229.56187012 247.92626465 -229.05444336 247.39526367 C-227.65118276 245.93937215 -226.22657186 244.50414707 -224.80078125 243.0703125 C-219.9845366 236.79129888 -218.74674175 228.69191679 -217.12109375 221.0703125 C-216.92557419 220.17300919 -216.73005463 219.27570587 -216.52861023 218.35121155 C-215.9128632 215.52028174 -215.3039743 212.6879294 -214.6953125 209.85546875 C-214.2758456 207.92112524 -213.85592788 205.98687943 -213.43554688 204.05273438 C-212.41275821 199.34225827 -211.39611205 194.63049482 -210.3828125 189.91796875 C-225.54746085 182.84738026 -240.73069331 175.81792833 -255.9453125 168.85546875 C-257.05184174 168.34898804 -257.05184174 168.34898804 -258.1807251 167.83227539 C-266.97348695 163.81055804 -275.78475398 159.83614762 -284.6315918 155.93481445 C-289.89062306 153.615016 -295.13963151 151.27335018 -300.3828125 148.91796875 C-301.23504395 148.53705078 -302.08727539 148.15613281 -302.96533203 147.76367188 C-312.349285 143.52316034 -319.95444459 139.62564509 -324.8203125 130.10546875 C-326.11375956 122.7759354 -326.25767409 116.36266389 -322.74609375 109.671875 C-319.48391247 105.47497129 -315.08645128 103.08985022 -310.37890625 100.80859375 C-309.50525421 100.38336174 -309.50525421 100.38336174 -308.61395264 99.94953918 C-306.68623527 99.01490127 -304.75364918 98.09092109 -302.8203125 97.16796875 C-302.14553864 96.84327606 -301.47076477 96.51858337 -300.77554321 96.18405151 C-289.05254138 90.54539243 -277.20124826 85.21820967 -265.29522705 79.97940063 C-254.18648591 75.09089579 -243.16148304 70.05587023 -232.1953125 64.85546875 C-216.9959881 57.65139159 -201.71397301 50.64590628 -186.38378906 43.72509766 C-183.11883032 42.25104414 -179.85558606 40.77324734 -176.59307861 39.29377747 C-165.2202295 34.13672714 -153.83967599 28.99830113 -142.421875 23.94140625 C-141.66400192 23.60572632 -140.90612885 23.27004639 -140.12528992 22.92419434 C-137.04570123 21.56038959 -133.9660844 20.19664862 -130.88626099 18.83337402 C-120.87737805 14.39998581 -110.92008033 9.87664504 -101.0078125 5.23046875 C-91.76261414 0.90556887 -82.47763865 -3.31442137 -73.12420654 -7.39932251 C-71.81605078 -7.97096657 -70.5087691 -8.54461586 -69.20245361 -9.12045288 C-42.22535664 -20.99386915 -25.18203591 -11.49124962 0 0 Z M-210.3828125 260.91796875 C-211.04539062 261.50835937 -211.70796875 262.09875 -212.390625 262.70703125 C-233.61997315 282.21740385 -244.90560804 313.59281802 -251.3828125 340.91796875 C-251.64505615 342.00343994 -251.64505615 342.00343994 -251.91259766 343.11083984 C-258.9749369 373.27305157 -259.85672223 405.29504276 -261.98828125 436.08398438 C-262.06666229 437.18558899 -262.14504333 438.2871936 -262.22579956 439.42218018 C-262.37180734 441.47679519 -262.51310168 443.53175362 -262.64846802 445.58709717 C-263.57466187 458.48827917 -265.17963684 466.43662167 -274.3046875 475.9140625 C-289.53785498 492.03075369 -295.8555595 512.92561006 -295.66015625 534.7890625 C-294.26887576 563.79829906 -276.36290806 589.56680199 -255.57958984 608.51611328 C-243.43108066 619.19725636 -229.71919549 627.533636 -215.3828125 634.91796875 C-214.59487305 635.32756836 -213.80693359 635.73716797 -212.99511719 636.15917969 C-181.06819998 652.57763852 -145.72643519 662.26919327 -110.3828125 667.91796875 C-109.22136719 668.11406738 -108.05992187 668.31016602 -106.86328125 668.51220703 C-86.4892798 671.82922031 -66.11837705 672.31436809 -45.51568222 672.35097885 C-43.48451812 672.35538373 -41.45341642 672.36444001 -39.42227173 672.37417603 C35.1459777 672.59700156 120.5911179 653.89291987 175.51953125 600.12109375 C193.25379275 581.69985225 206.40009799 557.34812737 207.0546875 531.35546875 C206.31388189 508.06947923 197.59114685 488.23277705 181.09765625 471.9296875 C174.91157047 464.41870775 173.87561704 456.5289964 173.203125 447.046875 C173.10254791 445.81170639 173.00197083 444.57653778 172.89834595 443.30393982 C172.5811054 439.36381349 172.28627722 435.42238354 171.9921875 431.48046875 C171.78793714 428.89897111 171.58221994 426.31758909 171.375 423.73632812 C170.57787329 413.72620965 169.82058597 403.7132899 169.08813477 393.69824219 C167.88974908 377.3232062 167.88974908 377.3232062 165.8046875 361.04296875 C165.63364502 359.92913818 165.46260254 358.81530762 165.28637695 357.66772461 C162.53157312 340.44556609 157.71812397 324.23085355 151.6171875 307.91796875 C151.23046875 306.84417969 150.84375 305.77039063 150.4453125 304.6640625 C145.2797895 291.20750076 137.37957585 277.53702006 127.6171875 266.91796875 C127.1938916 266.44311035 126.7705957 265.96825195 126.33447266 265.47900391 C109.92533976 247.21899948 87.72324608 239.97746462 63.6171875 237.91796875 C28.40685737 236.46805581 -10.72483862 241.66904146 -39.5078125 263.98046875 C-42.3828125 265.91796875 -42.3828125 265.91796875 -44.5859375 265.82421875 C-48.44832987 264.57271731 -51.5846178 262.50765569 -55.0078125 260.35546875 C-97.91115004 234.34508659 -171.55016925 222.62280153 -210.3828125 260.91796875 Z " fill="#06449B" transform="translate(556.3828125,129.08203125)"/>
<path d="M0 0 C2.69429799 1.24062224 5.34781801 2.54932543 7.98948669 3.89816284 C10.93395257 5.40084818 13.90575014 6.845526 16.87698364 8.29437256 C18.42505606 9.04956719 19.97179395 9.80750335 21.51721191 10.56811523 C29.36481836 14.41985612 37.34693667 17.93452971 45.36256409 21.41915894 C48.185319 22.65224056 51.00668596 23.88846555 53.82740784 25.12619019 C54.52935776 25.43413513 55.23130768 25.74208008 55.95452881 26.05935669 C64.14728066 29.66279461 72.28850623 33.37843464 80.42506409 37.10665894 C81.1597995 37.44321503 81.89453491 37.77977112 82.65153503 38.12652588 C91.05719405 41.97895988 99.45146448 45.85554185 107.84034729 49.74435425 C118.12215593 54.50869427 128.44312139 59.16378969 138.82423401 63.70773315 C157.01925406 71.6727642 175.13475464 79.81272998 193.15260315 88.17086792 C199.61857918 91.16898916 206.0961505 94.13937782 212.58522034 97.08712769 C214.17882041 97.81195298 215.77240765 98.53680651 217.36598206 99.26168823 C219.71880187 100.33181652 222.07208568 101.40084753 224.42707825 102.46618652 C226.61918506 103.45793564 228.80937504 104.45381548 230.99928284 105.45040894 C231.9695919 105.88724251 231.9695919 105.88724251 232.95950317 106.332901 C237.27332242 108.30195569 241.34146128 110.5205554 245.42506409 112.91915894 C242.74693589 115.02789148 240.12625238 116.68208017 237.05787659 118.16134644 C236.18743713 118.58117798 235.31699768 119.00100952 234.42018127 119.43356323 C233.4730426 119.88255981 232.52590393 120.3315564 231.55006409 120.79415894 C230.55136292 121.2695813 229.55266174 121.74500366 228.5236969 122.23483276 C215.30532197 128.46586257 201.86462549 134.18623989 188.42506409 139.91915894 C186.62675405 140.69228725 184.82856139 141.4656887 183.03053284 142.23947144 C174.70591562 145.80377399 166.31728149 149.1750653 157.86256409 152.41915894 C156.9504718 152.77018677 156.03837952 153.1212146 155.09864807 153.48287964 C154.25632629 153.80216431 153.41400452 154.12144897 152.54615784 154.45040894 C151.79777649 154.73464722 151.04939514 155.0188855 150.27833557 155.31173706 C148.42506409 155.91915894 148.42506409 155.91915894 146.42506409 155.91915894 C146.13373596 154.78478394 145.84240784 153.65040894 145.54225159 152.48165894 C142.47639996 141.00126686 139.92773005 133.61181332 129.61256409 126.91915894 C100.32473955 109.98920606 67.82961603 101.8233631 34.42506409 97.91915894 C33.68531342 97.83195587 32.94556274 97.74475281 32.18339539 97.65490723 C17.85374724 96.00790243 3.65403263 95.55610497 -10.76243591 95.60665894 C-11.84733307 95.60848175 -12.93223022 95.61030457 -14.05000305 95.61218262 C-41.71900432 95.6899978 -68.55973351 97.53251213 -95.57493591 103.91915894 C-96.29052673 104.07996948 -97.00611755 104.24078003 -97.74339294 104.40646362 C-114.53464348 108.19547308 -130.68484774 114.93116678 -145.84397888 123.00509644 C-147.49293973 123.8758594 -149.16055691 124.71101768 -150.82884216 125.54415894 C-152.28097107 126.28665894 -152.28097107 126.28665894 -153.76243591 127.04415894 C-154.5809906 127.45923706 -155.39954529 127.87431519 -156.24290466 128.30197144 C-162.20759341 132.43828825 -164.42612934 137.2232935 -166.26243591 143.98165894 C-167.52500122 148.38225064 -168.83276518 152.6800749 -170.57493591 156.91915894 C-177.91697826 154.05325715 -185.13172106 150.95107658 -192.32493591 147.73165894 C-193.46309753 147.22409058 -194.60125916 146.71652222 -195.77391052 146.193573 C-199.70889614 144.43836244 -203.6419189 142.67877511 -207.57493591 140.91915894 C-209.13302988 140.22235586 -210.69113577 139.52557946 -212.24925232 138.8288269 C-218.78317383 135.90680921 -225.31704332 132.9846779 -231.84934998 130.05905151 C-233.38417234 129.37177698 -234.91900299 128.68452093 -236.45384216 127.99728394 C-237.57374039 127.49572029 -237.57374039 127.49572029 -238.71626282 126.98402405 C-242.67118221 125.21401016 -246.62875435 123.45020015 -250.59007263 121.69454956 C-251.40878342 121.33157776 -252.2274942 120.96860596 -253.0710144 120.59463501 C-254.63415943 119.90208019 -256.19766676 119.21034232 -257.76159668 118.51956177 C-261.07016655 117.05381905 -264.36074223 115.58534988 -267.57493591 113.91915894 C-266.57493591 110.91915894 -266.57493591 110.91915894 -264.82615662 109.77511597 C-264.0587616 109.41272827 -263.29136658 109.05034058 -262.50071716 108.67697144 C-261.18333557 108.04855347 -261.18333557 108.04855347 -259.83934021 107.40744019 C-258.86521179 106.95755737 -257.89108337 106.50767456 -256.88743591 106.04415894 C-255.85852234 105.5607605 -254.82960876 105.07736206 -253.76951599 104.57931519 C-245.22234356 100.59992166 -236.58186268 96.84351069 -227.91740417 93.12796021 C-216.04859942 88.03814362 -204.27182815 82.75651274 -192.51243591 77.41915894 C-191.61466431 77.01169434 -190.7168927 76.60422974 -189.79191589 76.18441772 C-186.22954365 74.56732573 -182.66722509 72.95011587 -179.10517883 71.33230591 C-170.10925712 67.24886228 -161.09304097 63.21113968 -152.0688324 59.19064331 C-141.33175879 54.39539709 -130.69405044 49.39289841 -120.05931091 44.37619019 C-106.59410015 38.02545027 -93.10244343 31.77030674 -79.47288513 25.77780151 C-66.75997465 20.16279265 -54.17065249 14.28041289 -41.5712738 8.41622925 C-40.28364388 7.81720795 -40.28364388 7.81720795 -38.97000122 7.20608521 C-37.36505469 6.45914586 -35.76046133 5.71144691 -34.15631104 4.96279907 C-32.69309157 4.28144011 -31.22829352 3.60345917 -29.7618103 2.92915344 C-28.24765443 2.22984985 -26.73897011 1.51862208 -25.23486328 0.79795837 C-16.57564008 -3.25519997 -9.01330518 -3.83254082 0 0 Z " fill="#0670C8" transform="translate(523.5749359130859,139.08084106445313)"/>
<path d="M0 0 C1.12067871 0.23025879 2.24135742 0.46051758 3.39599609 0.69775391 C10.66227375 2.24084178 17.83758781 4.0343756 25 6 C25.72574219 6.19142578 26.45148438 6.38285156 27.19921875 6.58007812 C36.69381026 9.10761673 45.73442748 12.7787497 54.8125 16.5 C55.96548584 16.96301514 57.11847168 17.42603027 58.30639648 17.90307617 C59.38735596 18.35787354 60.46831543 18.8126709 61.58203125 19.28125 C62.55374268 19.68408203 63.5254541 20.08691406 64.52661133 20.50195312 C69.22568434 23.34802084 70.44546214 27.90775989 71.7175293 33.02783203 C72.01761398 34.21901642 72.31769867 35.41020081 72.62687683 36.63748169 C73.09581108 38.55329544 73.09581108 38.55329544 73.57421875 40.5078125 C73.90561588 41.83884849 74.23764171 43.16972809 74.57026672 44.50045776 C75.26359133 47.28146484 75.95144181 50.06374697 76.63500977 52.84716797 C77.51128531 56.4146864 78.39788964 59.97953347 79.28816509 63.54358101 C79.97310384 66.28803504 80.65425388 69.0334173 81.33408546 71.77914047 C81.65984906 73.09425073 81.98640149 74.40916585 82.31375694 75.72388077 C82.76965531 77.55868229 83.22027849 79.39479212 83.6706543 81.23095703 C84.05679146 82.79718307 84.05679146 82.79718307 84.45072937 84.39505005 C85 87 85 87 85 90 C83.94425781 89.74605469 82.88851563 89.49210937 81.80078125 89.23046875 C76.88362694 88.07322587 71.94841301 87.01470267 67 86 C66.22462891 85.84031738 65.44925781 85.68063477 64.65039062 85.51611328 C41.4053252 80.95330312 15.11162824 80.78746589 -8 86 C-9.21042969 86.23203125 -10.42085937 86.4640625 -11.66796875 86.703125 C-26.71568752 89.93782956 -41.53379215 96.15444773 -55.68408203 102.13427734 C-61.86334171 104.44417138 -67.06372792 102.48740489 -72.8125 100 C-91.21810471 92.48715088 -110.31788532 86.89018469 -130 84 C-130.67119873 83.8983252 -131.34239746 83.79665039 -132.03393555 83.69189453 C-139.54663999 82.7003342 -147.12262542 82.75822792 -154.6875 82.75 C-155.41488373 82.74866058 -156.14226746 82.74732117 -156.89169312 82.74594116 C-172.79578064 82.75226919 -188.40703531 84.00797016 -203.7578125 88.44921875 C-206 89 -206 89 -210 89 C-207.14355385 75.91279191 -204.19275094 62.84839734 -201.01074219 49.83618164 C-200.49865422 47.71666991 -199.99886918 45.59415204 -199.51074219 43.46899414 C-198.792452 40.35014007 -198.03355607 37.24367109 -197.265625 34.13671875 C-197.05697815 33.19092453 -196.8483313 32.24513031 -196.63336182 31.27067566 C-195.39993675 26.46991073 -194.33204965 23.71750658 -190.06494141 20.99316406 C-188.72635844 20.29632897 -187.37255258 19.62728217 -186 19 C-184.82848389 18.40264038 -184.82848389 18.40264038 -183.63330078 17.79321289 C-182.99376465 17.5224292 -182.35422852 17.25164551 -181.6953125 16.97265625 C-180.58760498 16.50146362 -180.58760498 16.50146362 -179.45751953 16.02075195 C-178.30292236 15.54641724 -178.30292236 15.54641724 -177.125 15.0625 C-176.29983887 14.72114014 -175.47467773 14.37978027 -174.62451172 14.02807617 C-166.20798247 10.59938715 -157.71485094 7.57703181 -149 5 C-147.88625 4.66572998 -147.88625 4.66572998 -146.75 4.32470703 C-102.08033105 -8.68801117 -45.40783997 -9.36942813 0 0 Z " fill="#0670C8" transform="translate(574,262)"/>
<path d="M0 0 C4.99736855 3.3174021 9.24147113 7.19965915 13.58203125 11.30566406 C30.99167352 27.72426449 50.63418808 39.99907042 75.18359375 40.859375 C77.625 41 77.625 41 79.625 42 C78.53656681 54.85613118 64.83403089 65.64785219 55.625 74 C52.80296732 76.36058796 49.88765197 78.59096312 46.95532227 80.81201172 C40.31279182 85.88968407 34.35057985 91.66262588 28.30126953 97.42089844 C26.01243958 99.57705225 23.66624918 101.66514548 21.3125 103.75 C17.92610426 106.77136137 14.69211144 109.89898146 11.5 113.125 C7.36915388 117.29463341 3.16115833 121.27386994 -1.375 125 C-1.94734375 125.47308594 -2.5196875 125.94617188 -3.109375 126.43359375 C-12.25485732 133.50246426 -22.2261939 133.82626851 -33.375 133 C-43.3052007 131.27233185 -50.94090925 122.60725237 -58.06640625 116.08203125 C-60.0004171 114.3378218 -61.96512528 112.68561183 -64 111.0625 C-64.78375 110.381875 -65.5675 109.70125 -66.375 109 C-66.375 108.34 -66.375 107.68 -66.375 107 C-66.90996094 106.79503906 -67.44492187 106.59007812 -67.99609375 106.37890625 C-71.34438965 104.43810419 -73.78448361 101.70921431 -76.4375 98.9375 C-82.08905044 93.16021808 -88.01735205 87.99727787 -94.375 83 C-124.43988273 58.8127807 -124.43988273 58.8127807 -129.375 47 C-129.19722222 42.82222222 -129.19722222 42.82222222 -127.375 41 C-125.19096893 40.72131642 -123.00236598 40.4783489 -120.8125 40.25 C-100.11968323 37.70571959 -83.63515871 28.89951356 -68.375 15 C-47.68714641 -3.52416982 -26.63276919 -15.62812424 0 0 Z " fill="#FB8B22" transform="translate(537.375,612)"/>
<path d="M0 0 C14.35671618 -0.51642864 27.92433802 3.9227122 38.77734375 13.40234375 C40.39942064 14.96732353 42.00391717 16.5507408 43.58984375 18.15234375 C44.36199219 18.89097656 45.13414062 19.62960937 45.9296875 20.390625 C61.24025923 35.96291591 65.86577046 57.55747887 65.90893555 78.69238281 C65.65865459 100.1551855 57.96340572 119.46613944 43.15234375 135.08984375 C31.05030274 146.54168845 16.42986563 150.70147208 0.14453125 150.42578125 C-14.08623443 149.83599572 -26.96092208 140.22745611 -36.41015625 130.15234375 C-52.09844083 110.43564797 -57.091178 87.45329075 -55.13671875 62.6875 C-52.31732359 41.16966333 -42.29081143 22.45608072 -25.47265625 8.71484375 C-17.79699668 3.37662784 -9.24754178 0.58452857 0 0 Z " fill="#FCFDFC" transform="translate(407.41015625,482.84765625)"/>
<path d="M0 0 C0.92039062 -0.01160156 1.84078125 -0.02320313 2.7890625 -0.03515625 C17.43364779 0.02672228 29.38284689 6.34106901 39.75 16.4375 C57.31798067 34.36776043 60.44834834 56.46897787 60.2109375 80.671875 C59.82746831 97.74335523 54.78285676 113.9795568 44 127.375 C43.45601562 128.08140625 42.91203125 128.7878125 42.3515625 129.515625 C33.3090793 140.63830386 19.25072202 148.04659077 4.96240234 149.59594727 C-10.33455511 150.45797968 -23.23499477 146.94477724 -35.0078125 136.77734375 C-51.30978894 121.62883317 -59.03565024 101.90728668 -60.1796875 79.921875 C-60.65957501 56.14078307 -53.89764395 34.29943521 -38 16.375 C-37.43539062 15.72789062 -36.87078125 15.08078125 -36.2890625 14.4140625 C-26.43510111 3.81989743 -14.1771567 -0.17870366 0 0 Z " fill="#FDFDFC" transform="translate(611,483.625)"/>
<path d="M0 0 C13.06058382 8.45942402 20.90735953 22.25874967 24.44140625 37.25390625 C27.10756499 53.30213096 24.48802405 71.11135747 15.49609375 84.87890625 C13.79249782 87.14018156 12.01552963 89.26865294 10.12890625 91.37890625 C9.57203125 92.01699219 9.01515625 92.65507813 8.44140625 93.3125 C1.85999751 100.39665524 -6.7998762 105.27824549 -16.55859375 105.75390625 C-27.67263704 105.48690221 -37.90166329 99.77711393 -45.49609375 91.87890625 C-56.2402284 78.73608108 -60.20077701 62.14245171 -59.08251953 45.42871094 C-57.3695789 28.82149437 -50.3725486 14.45005542 -37.69140625 3.49609375 C-27.59803775 -4.38816013 -11.67070442 -5.82520377 0 0 Z " fill="#074499" transform="translate(620.87109375,511.62109375)"/>
<path d="M0 0 C14.81791643 9.32748845 22.83115293 21.41502314 27.24902344 38.25708008 C28.22999608 42.96566979 28.38788776 47.55745587 28.35546875 52.35546875 C28.34974854 53.35288086 28.34402832 54.35029297 28.33813477 55.37792969 C27.99488246 69.75060891 23.66010048 82.7093176 13.7578125 93.44140625 C5.85169732 100.94315222 -3.95936307 106.01275458 -14.95703125 106.54296875 C-25.06604403 106.2676855 -33.12978691 101.17154312 -40.14453125 94.16796875 C-53.92645671 77.77450009 -56.75530264 59.08022493 -55.14453125 38.16796875 C-53.07477851 25.56682709 -46.26419793 13.0334148 -36.14453125 5.16796875 C-25.65181423 -1.85840426 -12.1747415 -5.72454733 0 0 Z " fill="#074499" transform="translate(434.14453125,510.83203125)"/>
<path d="M0 0 C3.73539185 1.1105219 7.13759046 2.54199312 10.625 4.25 C25.55303525 11.08865399 41.87057437 14.41206322 58 17 C59.19238281 17.1959375 60.38476562 17.391875 61.61328125 17.59375 C68.34391015 18.38405719 75.16939064 18.19678989 81.9375 18.1875 C82.67643494 18.18722809 83.41536987 18.18695618 84.17669678 18.18667603 C94.91644577 18.16845626 105.39720848 17.85870325 116 16 C117.80017578 15.70802734 117.80017578 15.70802734 119.63671875 15.41015625 C134.03192895 12.82483157 148.13734416 8.41172822 161.6640625 2.8828125 C164 2 164 2 166 2 C165.67 2.99 165.34 3.98 165 5 C163.35675042 5.72246318 161.68507507 6.38133673 160 7 C146.9793621 14.63965999 136.26449566 26.89512075 126.53417969 38.25585938 C125.0816299 39.9071986 123.57285674 41.46372132 122 43 C121.32839844 42.72285156 120.65679688 42.44570313 119.96484375 42.16015625 C116.53036213 40.81622866 113.05750849 39.61179498 109.5625 38.4375 C108.91990234 38.21642578 108.27730469 37.99535156 107.61523438 37.76757812 C91.77183887 32.44355385 72.69619487 33.25370996 57.4453125 40.15625 C55.62321724 41.09065783 53.81057874 42.04346784 52 43 C48 43 48 43 46.46362305 41.84179688 C45.98449463 41.30619141 45.50536621 40.77058594 45.01171875 40.21875 C44.47393799 39.62795654 43.93615723 39.03716309 43.38208008 38.4284668 C42.82286865 37.79207275 42.26365723 37.15567871 41.6875 36.5 C41.10572998 35.85651611 40.52395996 35.21303223 39.92456055 34.55004883 C37.00198186 31.306056 34.14288362 28.01218506 31.3125 24.6875 C22.43670674 14.48142814 11.72034096 7.51130053 0 1 C0 0.67 0 0.34 0 0 Z " fill="#AF6C1B" transform="translate(427,663)"/>
<path d="M0 0 C-1.32843171 5.64583475 -5.32974455 8.08710872 -10 11 C-22.56962901 17.81780231 -36.38796548 18.88517409 -50.14453125 15.05078125 C-54.84085924 13.32258395 -58.87574332 10.80069204 -63 8 C-63.64453125 7.57847656 -64.2890625 7.15695312 -64.953125 6.72265625 C-66.31221883 5.83035399 -67.65818659 4.91808286 -69 4 C-68.6953125 2.125 -68.6953125 2.125 -68 0 C-48.67367734 -12.3688465 -19.47160608 -11.35843688 0 0 Z " fill="#FD6536" transform="translate(547,705)"/>
<path d="M0 0 C7.81234985 5.89399889 14.20516171 13.14288102 20 21 C16.7584651 21 15.54498169 20.43973961 12.7109375 18.98828125 C11.85983398 18.56216553 11.00873047 18.1360498 10.13183594 17.69702148 C9.22208008 17.24012939 8.31232422 16.7832373 7.375 16.3125 C-4.29553072 10.60487479 -16.80587154 5.31468109 -30 5 C-31.61455078 4.94199219 -31.61455078 4.94199219 -33.26171875 4.8828125 C-51.104872 4.53559438 -66.4001024 9.25764939 -80 21 C-80.99 21.495 -80.99 21.495 -82 22 C-81.55936461 13.62792752 -75.93339363 6.15695793 -69.9765625 0.59375 C-49.41696189 -15.98395168 -21.23950051 -14.35600823 0 0 Z " fill="#DFAA22" transform="translate(648,449)"/>
<path d="M0 0 C6.80112528 5.49212209 12.09364833 11.66335967 15 20 C15 20.99 15 21.98 15 23 C12.09695652 21.62965956 9.5544037 20.04134393 6.9375 18.1875 C-9.58266851 7.13812139 -28.3012912 4.49863393 -47.58447266 8.23706055 C-61.39975622 11.29114265 -75.20805966 17.13870644 -87 25 C-80.01831003 9.74500742 -65.36868477 -0.58332989 -50.125 -6.3125 C-33.43982005 -12.21457112 -14.80710649 -9.49173493 0 0 Z " fill="#DFAA22" transform="translate(443,447)"/>
<path d="M0 0 C3.6496768 1.96291411 6.37274787 4.21376423 7.76953125 8.19140625 C8.54310137 13.21536168 8.02410091 16.76625872 5 21 C2.30450398 23.18553732 0.47787726 23.91865919 -2.9375 24.5 C-7.28060236 23.79092206 -8.89709345 22.10290655 -12 19 C-13.24133624 15.27599129 -13.54111486 11.86824 -13 8 C-9.86284108 2.15839374 -6.88205249 -1.05877731 0 0 Z " fill="#F7F9FB" transform="translate(621,528)"/>
<path d="M0 0 C3.28448443 2.72542325 4.70577337 4.24584883 5.41015625 8.4453125 C5.57813072 13.33848186 5.34540118 17.17668437 2 21 C-1.20937409 23.32402951 -4.11506021 23.47570691 -8 23 C-11.91260733 20.59908187 -13.8603576 18.45496573 -15 14 C-15.4694894 9.69634717 -15.28686364 7.5429919 -13.25 3.6875 C-9.13299502 -1.23003372 -6.27481166 -1.76135064 0 0 Z " fill="#F8FAFC" transform="translate(440,529)"/>
<path d="M0 0 C1.01397631 3.22628826 1.20240769 4.56482346 -0.25 7.6875 C-2 10 -2 10 -5 12 C-8.125 12.1875 -8.125 12.1875 -11 12 C-12 11 -12 11 -12.375 8.25 C-11.88162491 3.97408256 -10.24232486 2.70193739 -7 0 C-4.3333581 -1.33332095 -2.83319697 -0.67102033 0 0 Z " fill="#AB6B1B" transform="translate(492,627)"/>
<path d="M0 0 C3.75 0.375 3.75 0.375 6.6875 2.5 C9.0675546 5.81765187 9.29441566 7.3826185 8.75 11.375 C7.75 12.375 7.75 12.375 5 12.75 C0.73989775 12.25844974 -0.52468168 10.56751574 -3.25 7.375 C-3.58 7.045 -3.91 6.715 -4.25 6.375 C-4.375 3.875 -4.375 3.875 -4.25 1.375 C-3.25 0.375 -3.25 0.375 0 0 Z " fill="#AB6B1B" transform="translate(535.25,626.625)"/>
<path d="M0 0 C2.52128356 2.52128356 2.29353069 3.51239013 2.4140625 7.0078125 C2.45273437 7.99394531 2.49140625 8.98007812 2.53125 9.99609375 C2.5621875 11.02863281 2.593125 12.06117188 2.625 13.125 C2.66367187 14.16527344 2.70234375 15.20554687 2.7421875 16.27734375 C2.83664766 18.85138311 2.92221214 21.42541155 3 24 C2.01 23.67 1.02 23.34 0 23 C-0.1954384 20.10450497 -0.38161395 17.20891002 -0.5625 14.3125 C-0.61857422 13.49587891 -0.67464844 12.67925781 -0.73242188 11.83789062 C-0.98341571 7.70485877 -1.11127743 4.04175718 0 0 Z " fill="#124199" transform="translate(728,544)"/>
<path d="M0 0 C6.95347597 5.35997106 13.81407944 12.65676053 17 21 C16.67 21.99 16.34 22.98 16 24 C15.48050781 23.13117187 14.96101562 22.26234375 14.42578125 21.3671875 C9.12452378 11.09080934 9.12452378 11.09080934 0.6875 4.125 C0.130625 4.08375 -0.42625 4.0425 -1 4 C-0.67 2.68 -0.34 1.36 0 0 Z " fill="#F3E116" transform="translate(738,603)"/>
<path d="M0 0 C4.40147838 1.32044351 8.2551759 3.09343949 12.265625 5.29296875 C13.12414062 5.64294922 13.12414062 5.64294922 14 6 C14.66 5.67 15.32 5.34 16 5 C16.268125 5.598125 16.53625 6.19625 16.8125 6.8125 C17.98493467 8.97224808 19.19369282 10.35790256 21 12 C16.26525903 10.3003494 12.03832889 7.86340973 7.6875 5.375 C6.94693359 4.95476562 6.20636719 4.53453125 5.44335938 4.1015625 C3.62730989 3.07051505 1.81343467 2.03563954 0 1 C0 0.67 0 0.34 0 0 Z " fill="#0A30AC" transform="translate(487,381)"/>
<path d="M0 0 C4.04191465 4.49101628 6.43674441 9.58984989 9 15 C8.01 15.495 8.01 15.495 7 16 C6.60167969 15.22914063 6.20335937 14.45828125 5.79296875 13.6640625 C5.26316406 12.66117188 4.73335938 11.65828125 4.1875 10.625 C3.66542969 9.62726562 3.14335937 8.62953125 2.60546875 7.6015625 C1.10835316 4.77123883 1.10835316 4.77123883 -2 3 C-2 2.34 -2 1.68 -2 1 C-1.34 0.67 -0.68 0.34 0 0 Z " fill="#0E35A8" transform="translate(269,696)"/>
<path d="M0 0 C0.82638376 2.89234315 1 4.88742431 1 8 C0.34 8 -0.32 8 -1 8 C-1.226875 8.7425 -1.45375 9.485 -1.6875 10.25 C-3.24407532 13.51139591 -5.08518854 14.92894975 -8 17 C-7.01532024 14.87915128 -6.08458329 13.09929343 -4.5625 11.3125 C-2.21865645 7.84361155 -1.20064856 3.98513137 0 0 Z " fill="#092E8E" transform="translate(338,358)"/>
<path d="M0 0 C2 1 4 2 6 3 C6 3.66 6 4.32 6 5 C6.61875 5.28875 7.2375 5.5775 7.875 5.875 C10 7 10 7 12 9 C11.67 9.99 11.34 10.98 11 12 C9.16364422 10.19047409 7.33083792 8.37759362 5.5 6.5625 C4.97535156 6.04623047 4.45070313 5.52996094 3.91015625 4.99804688 C2.58775448 3.68423213 1.29164432 2.34406495 0 1 C0 0.67 0 0.34 0 0 Z " fill="#203DA1" transform="translate(672,384)"/>
<path d="M0 0 C4.21198772 1.55999545 6.27071823 4.55248619 9 8 C9.66 8.66 10.32 9.32 11 10 C8 10 8 10 5.95703125 8.3203125 C5.24933594 7.59585938 4.54164063 6.87140625 3.8125 6.125 C2.73935547 5.04605469 2.73935547 5.04605469 1.64453125 3.9453125 C0 2 0 2 0 0 Z " fill="#E7D81E" transform="translate(289,724)"/>
<path d="M0 0 C3.43198603 1.23932829 6.30325632 2.50301511 9 5 C9 5.99 9 6.98 9 8 C7.35 7.67 5.7 7.34 4 7 C4 6.01 4 5.02 4 4 C2.0624994 1.81222534 2.0624994 1.81222534 0 0 Z " fill="#F9DB17" transform="translate(502,391)"/>
<path d="M0 0 C3 0 3 0 5 1 C5 1.66 5 2.32 5 3 C4.34 3 3.68 3 3 3 C3.33 5.31 3.66 7.62 4 10 C1.2027092 7.93243723 0.97307727 6.85559629 0.3125 3.3125 C0.209375 2.219375 0.10625 1.12625 0 0 Z " fill="#0935A4" transform="translate(731,587)"/>
<path d="M0 0 C0.66 0.33 1.32 0.66 2 1 C0.7874262 4.72433382 -0.50859979 8.37802806 -2 12 C-2.33 12 -2.66 12 -3 12 C-2.14285714 3.42857143 -2.14285714 3.42857143 0 0 Z " fill="#0D348E" transform="translate(290,441)"/>
<path d="M0 0 C1.07310858 3.27185553 0.89263102 5.42947592 0.0625 8.75 C-0.22947266 9.94882812 -0.22947266 9.94882812 -0.52734375 11.171875 C-0.68332031 11.77515625 -0.83929688 12.3784375 -1 13 C-1.33 13 -1.66 13 -2 13 C-2.33 10.36 -2.66 7.72 -3 5 C-2.34 5 -1.68 5 -1 5 C-0.67 3.35 -0.34 1.7 0 0 Z " fill="#062DAD" transform="translate(263,636)"/>
<path d="M0 0 C0.33 0.99 0.66 1.98 1 3 C1.66 3 2.32 3 3 3 C3.25 9.625 3.25 9.625 1 13 C0.67 8.71 0.34 4.42 0 0 Z " fill="#EBCD28" transform="translate(301,491)"/>
<path d="M0 0 C0 0.66 0 1.32 0 2 C-4.15267176 5.11450382 -4.15267176 5.11450382 -7.3125 4.6875 C-7.869375 4.460625 -8.42625 4.23375 -9 4 C-2.25 0 -2.25 0 0 0 Z " fill="#0433AB" transform="translate(684,764)"/>
<path d="M0 0 C2.31 0 4.62 0 7 0 C5.25 2.0625 5.25 2.0625 3 4 C0.75 3.75 0.75 3.75 -1 3 C-0.67 2.01 -0.34 1.02 0 0 Z " fill="#F7DC1A" transform="translate(690,755)"/>
<path d="M0 0 C0.99 0.33 1.98 0.66 3 1 C-3.4 5.06153846 -3.4 5.06153846 -6.4375 4.75 C-6.953125 4.5025 -7.46875 4.255 -8 4 C-7.67 3.34 -7.34 2.68 -7 2 C-5.34385343 1.61781233 -3.67542976 1.28604898 -2 1 C-1.34 0.67 -0.68 0.34 0 0 Z " fill="#F4E018" transform="translate(686,760)"/>
<path d="M0 0 C3.63 0 7.26 0 11 0 C11 0.33 11 0.66 11 1 C9.02 1.33 7.04 1.66 5 2 C5 2.33 5 2.66 5 3 C3.35 3 1.7 3 0 3 C0 2.01 0 1.02 0 0 Z " fill="#154A93" transform="translate(399,365)"/>
<path d="M0 0 C1.10191901 4.40767604 0.58706842 5.8922935 -1 10 C-1.66 10 -2.32 10 -3 10 C-2.01 6.7 -1.02 3.4 0 0 Z " fill="#FACC16" transform="translate(470,583)"/>
<path d="M0 0 C0.99 0.33 1.98 0.66 3 1 C0.36 2.98 -2.28 4.96 -5 7 C-5.66 6.67 -6.32 6.34 -7 6 C-5.90716423 4.96704564 -4.80029421 3.94892165 -3.6875 2.9375 C-3.07261719 2.36902344 -2.45773437 1.80054688 -1.82421875 1.21484375 C-0.92123047 0.61349609 -0.92123047 0.61349609 0 0 Z " fill="#F9E512" transform="translate(356,381)"/>
<path d="M0 0 C0 0.66 0 1.32 0 2 C0.99 2.33 1.98 2.66 3 3 C-3.15234375 2.4140625 -3.15234375 2.4140625 -5 2 C-5.33 1.34 -5.66 0.68 -6 0 C-2.25 -1.125 -2.25 -1.125 0 0 Z " fill="#F6E216" transform="translate(389,780)"/>
<path d="M0 0 C0.66 0.33 1.32 0.66 2 1 C2 1.99 2 2.98 2 4 C0.35 4.66 -1.3 5.32 -3 6 C-2.42655063 3.13275314 -2.1385485 2.1385485 0 0 Z " fill="#1640A0" transform="translate(736,723)"/>
<path d="M0 0 C2 3.75 2 3.75 2 6 C1.01 6 0.02 6 -1 6 C-1 5.34 -1 4.68 -1 4 C-1.66 4 -2.32 4 -3 4 C-2.67 3.01 -2.34 2.02 -2 1 C-1.34 0.67 -0.68 0.34 0 0 Z " fill="#E8CF28" transform="translate(715,460)"/>
</svg>
